<?xml version="1.0" encoding="UTF-8" standalone="no"?>
<!-- Created with Inkscape (http://www.inkscape.org/) -->

<svg
   xmlns:dc="http://purl.org/dc/elements/1.1/"
   xmlns:cc="http://creativecommons.org/ns#"
   xmlns:rdf="http://www.w3.org/1999/02/22-rdf-syntax-ns#"
   xmlns:svg="http://www.w3.org/2000/svg"
   xmlns="http://www.w3.org/2000/svg"
   version="1.1"
   width="100"
   height="110"
   id="svg2">
  <metadata
     id="metadata196">
    <rdf:RDF>
      <cc:Work
         rdf:about="">
        <dc:format>image/svg+xml</dc:format>
        <dc:type
           rdf:resource="http://purl.org/dc/dcmitype/StillImage" />
        <dc:title></dc:title>
      </cc:Work>
    </rdf:RDF>
  </metadata>
  <defs
     id="defs194" />
  <g
     transform="translate(-19.576271,-14.576271)"
     id="g4"
     style="fill-rule:evenodd">
    <path
       d="m 40.64,32.86 c 0.45,0.52 1.79,0.15 1.45,1.45 -0.45,-0.51 -1.78,-0.15 -1.45,-1.45 z"
       id="path6" />
    <path
       d="m 44.51,35.76 c 0.11,-0.77 0.56,-0.02 0.48,0.48 -0.1,0.77 -0.55,0.03 -0.48,-0.48 z"
       id="path8" />
    <path
       d="m 44.03,38.18 c -1.16,-0.45 -1.28,-1.95 -3.39,-1.45 1.14,-1.36 3.76,-1.13 3.39,1.45 z"
       id="path10" />
    <path
       d="m 60.97,45.93 c -0.5,1.08 -2.23,-0.63 -3.87,0 -2.07,0.35 -2.64,2.2 -5.32,1.94 0.47,-2.27 4.08,-1.41 5.32,-2.9 0.81,0 1.61,0 2.42,0 0.35,0.44 0.88,0.72 1.45,0.96 z"
       id="path12" />
    <path
       d="m 68.71,48.83 c 0.85,0.45 1.07,1.51 0.97,2.9 0.24,2.28 -0.87,1.17 -0.48,-0.48 0.2,-1.16 -0.89,-1.05 -0.49,-2.42 z"
       id="path14" />
    <path
       d="m 52.26,50.77 c 0.59,0.21 0.99,0.62 0.97,1.45 -0.6,-0.21 -1,-0.62 -0.97,-1.45 z"
       id="path16" />
    <path
       d="m 75.01,53.19 c 0.09,-0.55 0.49,-0.27 0.48,0 -0.09,0.55 -0.49,0.27 -0.48,0 z"
       id="path18" />
    <path
       d="m 35.8,55.61 c 0.56,-1.57 0.55,1.3 0.48,1.94 -0.55,1.56 -0.55,-1.3 -0.48,-1.94 z"
       id="path20" />
    <path
       d="m 28.54,59.48 c 0.47,0.01 0.38,0.59 0.48,0.97 -0.47,-0.01 -0.37,-0.59 -0.48,-0.97 z"
       id="path22" />
    <path
       d="m 46.93,59.97 c 0.48,-1.48 1.29,0.56 1.94,0.48 -0.42,1.41 -0.72,0.54 -1.94,0.48 0.3,-0.43 0.59,-0.86 0,-0.96 z"
       id="path24" />
    <path
       d="m 76.94,60.93 c 0.09,-0.55 0.49,-0.27 0.48,0 -0.09,0.55 -0.48,0.27 -0.48,0 z"
       id="path26" />
    <path
       d="m 35.31,60.93 c 2.21,-0.43 2.74,0.81 4.36,0.97 0.21,1.01 -0.33,1.28 -0.48,1.94 -0.47,-0.01 -0.38,-0.59 -0.48,-0.97 -0.47,0.01 -0.38,0.59 -0.48,0.97 -0.7,0.26 -1.18,-1.89 -1.45,-0.48 -0.66,-0.15 -0.4,-1.21 -0.48,-1.94 -0.57,0.08 -0.41,0.88 -0.48,1.45 -0.68,-0.15 -0.42,-1.21 -0.51,-1.94 z m 2.42,0.97 c -0.38,0.11 -0.96,0.01 -0.97,0.48 0.38,-0.1 0.96,-0.01 0.97,-0.48 z"
       id="path28" />
    <path
       d="m 27.57,74 c 0.75,-1.48 0.43,2.1 0.48,2.9 0.01,1.14 -0.83,1.42 -0.48,2.9 0.57,-0.08 0.41,-0.88 0.48,-1.45 0.98,1.51 -0.24,2.71 0.48,4.84 -1.92,-2.21 -1.28,-5.7 -0.96,-9.19 z"
       id="path30" />
    <path
       d="m 47.9,84.65 c 0.01,-0.47 0.59,-0.38 0.97,-0.48 -0.02,0.47 -0.6,0.37 -0.97,0.48 z"
       id="path32" />
    <path
       d="m 40.64,92.88 c 0.11,-0.77 0.56,-0.02 0.48,0.48 -0.11,0.77 -0.55,0.03 -0.48,-0.48 z"
       id="path34" />
    <path
       d="m 70.65,104.01 c 1.71,1.47 -0.79,4.69 -2.42,2.9 -0.55,-2.31 1.85,-1.7 2.42,-2.9 z"
       id="path36" />
    <path
       d="m 52.26,18.34 c 0.41,1.42 1.22,-0.63 2.42,0 -1.84,0.74 -2.9,2.27 -4.84,2.9 0.15,-1.14 1.5,-1.08 1.94,-1.94 -8.67,-0.28 -11.98,4.8 -14.52,10.65 0.48,1.49 0.8,-1.05 1.45,-0.97 0.7,-0.27 1.18,-0.75 1.45,-1.45 0.69,0.99 -0.95,1.36 -1.45,1.94 -1.74,1.96 -4.16,4.79 -4.36,8.71 1.14,-2.57 2.68,-4.74 5.81,-5.32 -0.57,1.1 0.26,1.45 -1.45,1.94 -0.43,0.21 -0.87,0.43 -0.97,0.97 -0.68,-0.17 -0.04,-0.85 0.48,-0.97 -0.96,-1.24 -1.93,1.59 -2.9,1.94 0.06,2 -0.84,3.03 -0.48,5.32 0.24,2.02 1.69,2.82 1.94,4.84 -0.89,0.07 -0.3,1.64 -0.97,1.94 -0.66,-1.12 -1.39,-2.16 -1.45,-3.87 -2.13,2.22 -3.85,4.87 -3.39,9.68 0.87,-2.18 4.23,-3.41 3.39,-5.81 -0.61,0.12 -0.49,0.96 0,0.97 -1.37,1.05 -0.48,-1.42 -0.48,-2.9 0.78,0.67 0.52,2.39 1.45,2.9 1.87,0.54 1.72,-1.71 2.9,-0.48 0,1.78 -1.69,1.85 -2.42,2.9 3.02,0.11 3.01,-2.8 2.9,-5.81 -0.66,0.15 -0.4,1.21 -0.48,1.94 -0.75,-1.67 -0.93,-3.91 -2.42,-4.84 1.04,-1.81 -0.93,-1.46 -0.48,-3.87 0.55,0.58 1.23,0.19 0.48,0 1.32,-1.67 5.36,-2.68 7.26,-0.97 -0.66,0.95 -2.97,0.26 -3.87,0.97 -0.44,3.39 -0.59,4.63 0.48,7.75 3.85,-1.33 6.93,1.6 7.75,4.84 -1.1,-0.93 -1.45,-1.11 -1.94,0.48 -2.31,-0.22 -2.04,-0.22 -4.36,0 -0.15,-1.28 2.71,0.45 1.94,-1.45 -0.27,-1.05 -1.87,1.64 -2.9,0 0.51,3.52 0.75,7.32 1.94,10.17 0.27,1.09 0.75,-0.59 1.45,0.48 0.05,1.2 0.91,1.5 0,2.42 1.62,2.58 3.32,5.07 5.81,6.78 0.64,2.11 1.92,3.57 3.87,4.36 6.61,-1.13 9.82,-5.67 14.04,-9.2 -1.19,-1.07 -1.22,-3.3 -1.94,-4.84 -0.29,-3.42 0.33,-10.09 0.48,-12.1 0.07,-0.91 -1.05,-1.95 0.48,-0.48 0.16,4.11 -0.52,7.68 0,11.13 0.93,6.21 4.86,9.79 8.71,13.07 1.2,-0.29 4.3,1.24 3.39,0 0.62,-0.58 2.68,1.49 2.9,2.9 0.28,1.9 -1.99,1.24 -2.42,2.42 -1.49,-0.48 0.54,-1.31 0.97,-1.45 -0.39,-0.9 -0.81,-1.77 -0.97,-2.9 -3.61,0.38 -5.94,-0.52 -7.26,-2.42 -2.39,2.61 -4.65,5.35 -8.23,6.78 1.28,1.12 2.93,2.04 4.36,2.9 0.68,0.41 1.82,0.55 2.42,0.97 0.75,0.52 0.75,1.85 1.94,1.45 -1.61,1.11 -2.63,-2.52 -5.81,-1.45 -1.25,-0.85 -2.09,-2.11 -3.39,-2.9 -1.62,2.09 -2.34,5.09 -3.39,7.74 17.75,1.13 37.59,0.16 56.15,0.48 0,9.36 0,18.72 0,28.07 -23.56,0 -47.11,0 -70.67,0 0,-8.87 0,-17.75 0,-26.62 -0.92,-0.54 -1.7,-1.21 -2.9,-1.45 0.65,2.58 1.89,4.56 1.45,8.23 -1.28,1.95 -3.46,3 -4.36,5.32 0.14,0.87 -0.46,0.99 -0.48,0.48 0.52,-3.35 3.5,-4.24 4.36,-7.26 0.2,-2.3 -0.7,-3.49 -0.97,-5.33 -0.8,-0.82 -2.63,-0.6 -3.39,-1.45 0.64,1.46 1.56,2.63 1.45,4.84 -0.68,-1.64 -1.54,-3.25 -2.42,-4.84 -0.4,-0.71 -0.92,-1.12 -1.45,-1.94 -0.34,-0.52 -0.11,-2.35 -1.45,-1.94 0.4,-1.37 -0.68,-1.25 -0.48,-2.42 -0.09,-0.55 -0.49,-0.27 -0.48,0 -1.02,-2.17 2.1,-4.34 3.39,-5.81 2.16,-0.26 4.04,-0.8 4.84,-2.42 -2.6,-1.62 -5.31,0.81 -7.75,0.97 -2.13,1.74 -2.85,4.9 -4.84,6.78 0.29,1.16 0.7,2.21 0.48,3.87 -2.84,-4.78 2.47,-7.2 3.39,-11.13 2.58,-0.32 4.7,-1.11 6.78,-1.94 -1.99,-1.01 -6.29,-0.23 -9.2,0.48 -1.72,0.53 -1.27,3.25 -1.94,4.84 0.06,1.2 -0.59,0.82 -0.48,0 -0.06,-0.87 0.59,-1.02 0.48,-1.94 -0.29,-1.74 0.56,-2.34 0.97,-3.39 2.66,0.4 3.31,-1.21 5.81,-0.97 -1.89,-2.33 -5.09,0.13 -7.26,0.48 0,0.64 0,1.29 0,1.94 -0.78,-1.41 -1.19,-0.53 -2.9,-0.48 0.98,-1.04 -1.26,-1.58 -0.97,-3.39 1.1,0.93 1.45,1.11 1.94,-0.48 -0.26,-0.75 -0.51,-0.03 -0.48,0.48 -0.86,-0.44 -1.41,-1.17 -2.42,-1.45 0.08,-0.56 -0.11,-0.86 -0.48,-0.97 -0.23,-1.52 0.69,-1.89 0.97,-2.9 0.75,0.57 -1.29,2.38 0.48,3.39 0.72,-0.21 -0.19,-0.62 0,-1.45 1.02,0.85 1.43,1.09 2.9,0.48 -0.59,-0.7 -1.85,-0.73 -2.42,-1.45 1.77,-0.27 -0.35,-0.36 0,-2.9 0.99,0.3 0.14,2.45 1.94,1.94 -0.21,-0.43 -0.42,-0.87 -0.97,-0.97 0.27,-1.4 0.75,0.74 1.45,0.48 1.09,-0.26 -0.59,1.89 0.48,0.48 2.37,-0.03 -1.32,1.42 0.48,2.42 1.63,-0.63 0.63,-3.89 2.9,-3.87 0.04,-2.6 0.06,-4.76 0.48,-5.81 -0.79,-0.99 -1.57,-1.98 -1.94,-3.39 -0.37,-5.05 2.64,-6.72 4.36,-9.68 0.03,-1.8 -0.49,-3.06 -0.97,-4.36 0.87,-1.85 0.08,-3.55 0.97,-5.32 0.37,-0.74 1.12,-0.86 1.45,-1.45 1.91,-3.38 3,-8.68 6.29,-11.13 2.04,-0.55 3.41,-1.75 5.32,-2.42 0.97,0 1.94,0 2.9,0 3.12,-1.88 7.17,-2.83 12.58,-2.42 1.97,0.78 3.27,2.22 5.32,2.9 3.62,3.23 6.11,7.35 9.2,11.13 2.78,3.41 6.34,6.42 8.23,10.65 1.78,5.86 0.1,10.99 -0.97,16.46 1.06,2.09 -1.24,-0.08 -0.48,-1.94 3.79,-8.98 -0.09,-19.75 -6.29,-23.23 -1.84,-3.65 -4.88,-6.09 -6.78,-9.68 -3.06,-1.94 -5.21,-4.8 -9.2,-5.81 -3.96,-0.27 -6.63,0.77 -9.66,1.45 z M 34.35,51.25 c 1.66,0.49 3.99,-0.8 2.9,-1.45 -0.17,1.28 -2.47,0.44 -2.9,1.45 z m -0.49,0.49 c -0.43,2.22 -1.65,5.11 -1.94,8.23 -0.18,1.88 0.04,3.49 0,5.32 -0.03,1.6 -0.14,3.18 0,4.36 2.79,-1.33 5.92,1.17 8.71,1.45 0.11,0.38 0.01,0.96 0.48,0.97 -0.79,-3.13 -1.87,-8.76 0,-11.62 -2.17,-0.09 -3.99,-0.53 -4.84,-1.94 1.68,0.26 2.58,1.29 4.36,1.45 0.04,-2.47 -1.01,-3.83 -0.97,-6.29 -2.84,0.27 -3.21,-1.94 -5.8,-1.93 z m -4.35,18.88 c 0.08,-0.56 0.76,-0.53 1.45,-0.48 -0.21,-2.32 0.3,-6.45 0,-7.26 -0.96,1.79 -2.78,5.27 -1.45,7.74 z m -2.42,0 c -0.57,0.08 -1.37,-0.08 -1.45,0.48 0.56,-0.08 1.37,0.08 1.45,-0.48 z M 45.96,50.77 c 0.58,-0.1 0.3,-0.54 0,-0.97 -0.58,0.1 -0.29,0.54 0,0.97 z m -0.48,0.97 c 0.24,-0.72 -1.79,0.48 -1.94,-0.48 -0.3,1.96 1.94,0.47 1.94,0.48 z m -1.94,12.1 c -0.07,-0.9 -0.32,-1.62 -0.97,-1.94 0.07,0.9 0.32,1.62 0.97,1.94 z m 15.49,23.23 c 0.5,-3.21 2.17,-5.25 2.9,-8.23 2.82,-1.21 5.03,-3.04 6.78,-5.32 -1.58,-1.16 -1.47,-4.01 -2.42,-5.81 -2.66,3.15 -5.68,5.94 -9.68,7.74 0.19,2.41 2.76,4.96 1.45,7.26 -1.04,-1.87 -1.38,-4.42 -1.94,-6.78 -0.81,0 -1.61,0 -2.42,0 0,0.65 0,1.29 0,1.94 -1.33,0.3 -2.46,3.31 -3.39,2.42 0.41,-0.92 2.33,-2.79 1.45,-3.39 -0.83,1.59 -2.79,2.05 -3.87,3.39 0.99,0.14 0.97,1.29 1.45,1.94 2.22,-0.53 2.74,-2.75 5.81,-2.42 2.73,0.99 1.63,5.8 3.88,7.26 z M 45,74.49 c -0.17,1.97 -1.27,-0.02 -2.42,0.97 0,-0.48 0,-0.97 0,-1.45 -2.83,1.04 -5.11,2.63 -6.78,4.84 1.72,4.09 4.78,6.84 8.23,9.2 1.36,-0.58 3.34,-0.53 5.33,-0.48 0.28,-1.01 1.2,-1.38 0.97,-2.9 -2.04,-3.28 -3.98,-6.67 -6.78,-9.2 1.67,1.08 2.56,-0.78 3.87,0.97 -0.72,0.08 -1.79,-0.17 -1.94,0.48 1.12,-0.15 0.54,1.4 1.45,1.45 0.44,-0.28 1.78,-2 1.94,-0.97 -0.53,0.12 -1.16,0.8 -0.48,0.97 0.39,0.08 3.85,-1.39 1.94,-3.39 -0.14,1.13 -1.31,1.13 -1.45,0 0.54,-0.05 0.75,0.7 0.97,0 C 48.58,74.53 45.9,76.29 45,74.49 z m 2.42,-1.45 c -0.63,-1.2 1.08,-2.35 0,-2.42 -0.27,0.7 -0.75,1.18 -1.45,1.45 0.55,-2.05 0.29,-1.15 -0.97,-0.48 -0.82,-1.23 0.4,-4.56 -1.94,-5.33 -0.12,0.53 -0.8,1.16 -0.97,0.48 0.69,-0.06 0.69,-3.96 0,-2.42 -0.08,0.72 0.17,1.79 -0.48,1.94 -0.11,-0.38 -0.01,-0.95 -0.48,-0.97 0.09,2.17 1.01,3.51 1.94,4.84 -0.08,1.69 0.13,3.1 0.97,3.87 0.03,-1.63 1.11,-0.09 1.94,-1.45 0,0.65 0,1.29 0,1.94 0.92,-0.11 1.07,0.54 1.94,0.48 0.21,-0.42 0.6,-3.4 0,-2.42 -0.05,0.3 -0.09,0.57 -0.5,0.49 z M 37.73,43.99 c -0.08,0.65 0.76,2.67 0.97,1.45 -1.2,-0.73 0.3,-4.17 -0.97,-4.84 0.03,0.91 -0.37,1.02 -0.97,0.48 -0.23,1.53 0.7,1.9 0.97,2.91 z m 1.94,6.78 c 1.81,-0.29 2.82,-1.38 3.87,-2.42 -2.18,-0.72 -3.97,-0.32 -3.87,2.42 z M 45,49.32 c -0.38,0.11 -0.96,0.01 -0.97,0.48 0.37,-0.11 0.95,-0.01 0.97,-0.48 z m -0.49,0.97 c -0.38,0.11 -0.96,0.01 -0.97,0.48 0.38,-0.11 0.96,-0.01 0.97,-0.48 z m 5.81,37.27 c 0.81,0 1.61,0 2.42,0 -0.09,-1.87 -0.02,-3.57 0.48,-4.84 -1.67,0.7 -2.28,-0.54 -3.39,0.48 1.4,0.64 1,3.07 0.49,4.36 z m 6.29,-3.88 c -0.65,0 -1.29,0 -1.94,0 -1.17,1.31 -0.44,1.72 -0.97,3.87 1.45,0 2.9,0 4.36,0 -0.25,-1.51 -0.84,-2.69 -1.45,-3.87 z"
       id="path38" />
    <path
       d="m 36.77,103.53 c -0.99,-1.81 2.2,-3.59 2.42,-5.81 0.79,1.62 -2.12,3.68 -2.42,5.81 z"
       id="path40" />
    <path
       d="m 47.42,25.12 c 0.42,-0.86 1.53,-1.41 0.48,-2.42 -1.71,0.07 -2.17,1.39 -3.87,1.45 0.78,-0.99 2.33,-1.22 3.39,-1.94 1.3,-0.33 0.94,1 1.45,1.45 1.79,-1.76 4.3,-2.8 8.23,-2.42 0.12,0.53 0.96,0.33 0.97,0.97 -0.56,0.08 -0.86,-0.11 -0.97,-0.48 -1.29,0 -2.58,0 -3.87,0 -2.62,0.45 -2.98,3.15 -5.81,3.39 z"
       id="path42" />
    <path
       d="m 46.45,30.92 c -1.11,-1.4 -2.01,-0.77 -3.87,-0.48 0.7,-0.85 0.44,-1.1 -0.97,-0.97 -1.54,0.44 2.4,-0.84 2.9,-1.45 0.21,-0.8 -1.8,0.04 -1.94,0.48 -0.68,-0.17 -0.04,-0.85 0.48,-0.97 1.09,-0.27 -0.59,-0.75 0.48,-1.45 1.59,0.02 3.42,-0.2 3.39,1.45 2.25,-3.33 7.82,-3.38 10.65,-0.48 -0.31,0.75 -2.2,-0.99 -2.9,-1.45 -1.29,0 -2.58,0 -3.87,0 -2.36,0.86 -3.55,2.9 -4.35,5.32 z m -0.97,-4.35 c -0.57,0.08 -1.37,-0.08 -1.45,0.48 0.57,-0.07 1.37,0.08 1.45,-0.48 z"
       id="path44" />
    <path
       d="m 60,25.6 c 1.2,-1.01 1.9,2.59 3.39,2.9 0.22,1.73 2.17,4.25 1.45,5.32 0.21,0.92 1.04,1.22 0.97,2.42 -1.94,-0.87 0.13,0.15 0,1.45 -1.53,-0.89 -2.17,-2.67 -2.9,-4.36 0.99,0.14 0.97,1.29 1.45,1.94 1.17,-0.39 -1.52,-1.99 0,-2.9 -0.59,0.96 -1.67,-0.12 -0.48,-0.48 -0.15,-0.83 -1.68,0.63 -1.45,-1.45 0.39,0.09 0.48,0.49 0.97,0.48 C 62.34,29.07 61.69,26.81 60,25.6 z"
       id="path46" />
    <path
       d="m 67.26,42.06 c -0.86,0.14 -0.99,-0.46 -0.48,-0.48 -0.21,-0.72 -0.62,0.19 -1.45,0 -1.69,-1.06 -0.61,-2.69 -1.94,-3.39 0.21,-0.7 0.42,0.05 0.97,0 0.26,-1.71 -1.71,-1.19 -1.45,-2.9 2.02,2.34 3.69,4.13 4.35,6.77 z M 66.29,40.6 c -1.69,-0.14 0.04,-1.31 -0.97,-1.45 -0.03,0.3 -0.07,0.57 -0.48,0.48 -0.05,-0.54 0.7,-0.75 0,-0.97 -1.06,0.52 0.67,3.42 1.45,1.94 z"
       id="path48" />
    <path
       d="m 69.2,25.6 c -0.68,-0.58 -0.04,-0.19 0.48,0 0.69,3.18 2.25,5.5 2.42,9.2 0.48,1.29 1,2.55 0.97,4.36 -1.92,-0.15 0.54,-1.68 -1.45,-1.45 0.09,-0.39 0.49,-0.48 0.48,-0.97 -0.09,-0.55 -0.49,-0.27 -0.48,0 C 71.64,34.3 70.43,29.4 69.2,25.6 z"
       id="path50" />
    <path
       d="m 58.55,31.41 c -1.94,1.61 -3.12,-1.25 -5.32,-1.94 2.48,-2.16 3.47,0.89 5.32,1.94 z m -3.39,-1.45 c 0.57,0.07 1.1,0.86 1.45,0 -0.57,-0.07 -1.09,-0.87 -1.45,0 z"
       id="path52" />
    <path
       d="m 49.35,30.92 c 0.06,-1.07 2.05,-0.21 2.9,-0.48 0.01,0.47 0.59,0.38 0.97,0.48 0.93,1.33 2.05,2.46 3.39,3.39 -0.12,1.74 1.45,1.77 1.45,3.39 0.71,1.12 1.53,-0.95 1.45,0.97 -1.49,1.21 -1.42,-1.22 -1.94,-1.94 -0.64,-0.9 -1.38,-1.72 -1.94,-2.42 -1.53,-1.95 -2.3,-3.72 -6.28,-3.39 z"
       id="path54" />
    <path
       d="m 72.1,46.41 c 0.05,-0.53 1.79,-2.37 0,-3.39 0.81,-1.09 1.81,1.71 1.94,2.9 -0.72,1.05 -2.78,0.77 -2.9,2.42 -1.52,0.1 -2.97,0.01 -4.36,-0.48 -0.84,-0.3 -1.83,-1.15 -2.9,-1.94 -1.79,-1.32 -4.13,-3 -5.81,-4.84 -0.35,-0.38 -0.15,-1.02 -0.48,-1.45 -1.48,-1.9 -3.9,-2.88 -4.84,-4.84 -0.85,0.12 -1.1,0.83 -0.97,1.94 -0.57,-0.08 -0.41,-0.88 -0.48,-1.45 -0.66,0.15 -0.4,1.21 -0.48,1.94 -0.7,-0.97 -2.46,-2.42 -1.94,0.48 -1.25,-0.66 -0.11,-2.97 0,-3.87 -1.12,-0.15 -0.54,1.4 -1.45,1.45 -0.29,1 0.6,3.18 -0.48,3.39 0,-0.65 0,-1.29 0,-1.94 0,-0.65 0,-1.29 0,-1.94 0.45,-0.35 0.73,-0.88 0.97,-1.45 0.56,0.08 0.86,-0.11 0.97,-0.48 10.57,1.4 10.05,16.32 23.21,13.55 z"
       id="path56" />
    <path
       d="m 71.62,45.44 c -0.41,-0.36 0.32,-3.12 -1.45,-3.39 0.73,-0.68 3.39,2.55 1.45,3.39 z"
       id="path58" />
    <path
       d="m 59.52,38.67 c 0.96,1.95 2.81,3 3.87,4.84 0.32,0 0.65,0 0.97,0 -0.25,0.93 -0.79,0.07 -0.97,0 -1.17,-0.48 -5.19,-3.19 -3.87,-4.84 z"
       id="path60" />
    <path
       d="m 74.52,33.83 c -1.15,-0.97 0.54,0.21 0.97,0.48 -0.35,1.32 0.96,0.97 0.97,1.94 0.58,0.56 0.19,1.23 0,0.48 -0.84,-0.77 -1.42,-1.81 -1.94,-2.9 z"
       id="path62" />
    <path
       d="m 77.43,38.67 c 1.24,0.86 1.09,3.11 1.94,4.36 0.4,1.15 -0.68,2.23 -0.48,0.48 -0.31,-1.8 -1.16,-3.04 -1.46,-4.84 z"
       id="path64" />
    <path
       d="m 80.33,57.06 c 0.66,-0.15 0.4,-1.21 0.48,-1.94 0.78,2 2.01,4.89 1.94,6.29 -0.76,0.72 -1.98,-2.19 -2.9,-2.9 0,-1.13 0,-2.26 0,-3.39 -0.66,0.15 -0.4,1.21 -0.48,1.94 -1.3,-0.77 -0.47,-5.32 0,-7.26 0,-0.65 0,-1.29 0,-1.94 0,-0.65 0,-1.29 0,-1.94 0.15,-2.36 0.76,0.47 0.48,1.45 0.79,1.59 -0.11,1.85 0,3.87 0.78,2.16 1.01,3.29 0.48,5.82 z m -0.48,-2.9 c 0,-0.27 -0.39,-0.55 -0.48,0 -0.01,0.27 0.38,0.55 0.48,0 z M 81.78,59 c 0,-0.27 -0.39,-0.55 -0.48,0 0,0.27 0.39,0.55 0.48,0 z"
       id="path66" />
    <path
       d="m 84.69,46.9 c 1.48,1.51 -0.59,3.58 0,5.81 -2,-0.78 0.76,-3.26 0,-5.81 z"
       id="path68" />
    <path
       d="m 61.94,48.35 c 0.26,0.7 -1.89,1.18 -0.48,1.45 -1.55,1.75 -6.41,1.65 -5.32,-0.97 -1.68,0.6 -0.89,1.41 -1.45,2.42 -1.09,-0.45 0.83,-4.46 -0.97,-1.94 -2.02,-1.6 3.21,-1.06 1.45,-1.45 1.95,-1.45 5.05,0.1 6.77,0.49 z m -4.36,1.45 c -0.29,-0.03 -0.57,-0.07 -0.48,-0.48 0.27,0 0.55,-0.39 0,-0.48 -0.97,0.42 -0.13,2.45 0.48,0.96 z m 2.9,-0.48 c -0.38,0.11 -0.96,0.01 -0.97,0.48 0.38,-0.11 0.96,-0.01 0.97,-0.48 z"
       id="path70" />
    <path
       d="m 77.43,57.06 c -0.47,0.01 -0.38,0.59 -0.48,0.97 -1.29,-1.16 -0.47,-1.43 -0.97,-3.39 -0.6,0.54 -0.99,0.42 -0.97,-0.48 0.48,0 0.97,0 1.45,0 -0.17,0.97 0.1,1.51 0.97,1.45 0.3,1.8 1.36,2.83 1.94,4.36 1.01,2.22 -1.09,-0.71 -1.45,-1.45 0.13,-0.79 -0.47,-0.84 -0.49,-1.46 z"
       id="path72" />
    <path
       d="m 28.05,59.48 c 0.06,1.9 1.96,1.63 2.42,0.48 1.03,0.45 -0.91,1.95 -2.42,1.45 -0.93,-1.95 -0.31,-4.66 1.94,-4.84 -0.75,0.87 -1.33,1.9 -1.94,2.91 z"
       id="path74" />
    <path
       d="m 67.75,56.58 c 0.23,0.7 0.58,3.4 0.97,5.32 0.57,-0.08 0.41,-0.88 0.48,-1.45 1.13,0.12 0.28,2.13 0,2.42 -1.16,-1.26 -2.52,-4.35 -1.45,-6.29 z"
       id="path76" />
    <path
       d="m 69.68,62.39 c 0.12,0.59 1.84,1.93 0.97,1.94 0.12,0.53 0.96,0.33 0.97,0.97 0.7,-1.73 -0.31,-4.49 0.48,-6.78 -0.62,-0.08 -0.62,-2.95 0,-1.45 -0.18,0.82 0.38,0.91 0.97,0.97 -1.89,2.3 1.74,5.76 -0.48,6.78 0.14,1.71 1.31,-1.71 1.45,0 1.43,1.12 -1.12,-0.95 -0.48,0.97 1.12,0.15 1.86,-0.08 2.42,-0.48 0.77,-0.68 1.24,-1.67 1.45,-2.9 1.14,-1.56 -0.61,3.21 0.97,0.97 1.57,2.08 -0.94,4.21 -2.9,4.36 1.27,-0.47 1.45,-3.63 2.9,-2.42 -0.5,-1.94 -1.92,0.11 -2.42,0.97 -3.74,0.54 -7.28,-1.33 -6.3,-3.9 z"
       id="path78" />
    <path
       d="m 88.08,57.06 c -0.64,-1.43 1.12,1.75 1.45,2.42 -0.81,0.96 0.04,0.62 0,1.94 -1.01,0.54 -1.03,0.52 -0.48,-0.48 -0.27,-1.09 -0.75,0.59 -1.45,-0.48 0.66,-0.63 0.47,-2.11 0.48,-3.4 z"
       id="path80" />
    <path
       d="m 83.72,59 c 0.17,-0.68 0.85,-0.04 0.97,0.48 2.76,-0.34 2.76,0.82 0,0.48 C 84.47,59.54 84.26,59.1 83.72,59 z"
       id="path82" />
    <path
       d="m 26.6,59.48 c 1.08,-1.86 -0.22,1.3 -0.48,0.97 -0.4,-0.5 0.43,-0.87 0.48,-0.97 z"
       id="path84" />
    <path
       d="m 52.74,59 c -0.49,0.26 -2.14,2.51 -1.94,0.48 0.87,0.06 1.02,-0.59 1.94,-0.48 z"
       id="path86" />
    <path
       d="m 60.48,60.45 c -0.6,-1.22 0.71,0.14 0.97,0.97 0.17,0.53 -0.46,0.07 -0.97,-0.97 z"
       id="path88" />
    <path
       d="m 90.01,61.9 c 1.02,-0.88 -1.1,0.84 0,1.94 -0.86,0.14 -0.99,-0.46 -0.48,-0.48 -0.01,-0.47 -0.59,-0.38 -0.97,-0.48 0.35,-0.46 0.88,-0.74 1.45,-0.98 z"
       id="path90" />
    <path
       d="m 57.58,63.84 c 0,-0.32 0,-0.65 0,-0.97 -1.56,0.7 -3.59,0.93 -5.32,1.45 -1.11,-0.38 1.51,-1.02 2.42,-0.97 -0.49,-1.36 -2.06,0.13 -2.9,0 -1.8,-0.67 1.42,-0.07 0.97,-0.97 2.9,0.32 4.72,-0.44 7.26,-0.48 -1.88,1.7 -4.55,5.09 -8.23,4.36 -1.45,-0.29 -2.33,-1.44 -3.39,-2.9 -0.92,0.91 -1.22,0.05 -2.42,0 1.19,-1.46 3.15,0.37 4.84,0 -0.62,0.64 -0.62,1.78 0,2.42 3.44,0.54 4.92,-0.89 6.77,-1.94 z"
       id="path92" />
    <path
       d="m 47.9,63.84 c -0.05,0.05 0.96,0.46 0.97,0.48 1.07,2.14 -1.4,-0.06 -0.97,-0.48 z"
       id="path94" />
    <path
       d="m 58.55,63.84 c 0.6,3.14 -3.77,6.58 -8.23,4.84 -0.14,-0.99 -1.31,-0.95 -1.45,-1.94 -0.14,-0.86 0.46,-0.99 0.48,-0.48 -0.35,1.32 0.96,0.97 0.97,1.94 1.48,-0.35 1.76,0.5 2.9,0.48 3.06,-0.33 4.71,-2.07 5.33,-4.84 z"
       id="path96" />
    <path
       d="m 93.88,67.71 c -0.87,1.3 -1.73,-1.46 -2.42,-1.94 -0.78,0.14 -0.83,-0.46 -1.45,-0.48 -1.22,-0.91 0.81,-0.05 1.45,0 0.6,1.01 1.41,1.82 2.42,2.42 z"
       id="path98" />
    <path
       d="m 94.85,65.29 c -0.98,-1.22 1.16,0.93 1.45,1.45 0.11,2.88 0.04,3.28 0.48,5.32 -0.93,0.2 -0.38,1.88 -1.94,1.45 0.45,-1.25 2.35,-1.68 0.97,-2.42 -1.19,-0.64 -0.72,2.24 -1.94,1.94 0.26,0.39 0.5,0.79 0.48,1.45 -1.91,-0.25 -2.15,2.72 -0.97,0.48 1.69,1.11 -1.51,1.34 -1.45,2.42 -0.86,-0.36 -0.07,-0.88 0,-1.45 0.36,-1.49 -1.33,-0.93 -0.97,-2.42 0.59,0.21 0.99,0.62 0.97,1.45 1.41,-0.52 1.57,-2.3 1.45,-4.36 -0.44,-0.85 -1.08,-1.5 -1.94,-1.94 -2.4,-0.75 1.63,-0.31 1.94,0.48 -0.2,1.17 0.88,1.05 0.48,2.42 2.38,-0.42 2.4,-4.77 0.99,-6.27 z"
       id="path100" />
    <path
       d="m 82.27,66.74 c 3.33,-3.33 6.01,6.08 0.48,5.32 0.09,-0.39 0.49,-0.48 0.48,-0.97 -2.11,1 -5.07,0.35 -6.78,-0.48 0.4,-0.98 2.55,0.31 3.39,0.48 0.68,-0.17 0.04,-0.85 -0.48,-0.97 0.15,-1.03 1.5,0.69 1.94,0.97 2.8,-0.26 6.09,-4.3 0.97,-4.35 z"
       id="path102" />
    <path
       d="m 87.59,67.23 c -0.83,2.28 0.29,0.45 1.45,1.94 0.23,1.85 -0.14,3.09 -0.97,3.87 -1.66,-0.26 -0.74,-2.33 -0.48,-3.39 -1.86,2.9 0.04,-3.06 -1.94,-2.9 -1.19,-1.04 1.54,0.13 1.94,0.48 z"
       id="path104" />
    <path
       d="m 43.54,67.71 c -1.32,-1.47 1.48,1.32 0,0 l 0,0 z"
       id="path106" />
    <path
       d="m 95.34,72.07 c 1.47,-1.32 -1.32,1.47 0,0 l 0,0 z"
       id="path108" />
    <path
       d="m 97.27,73.04 c 1.55,0.79 0.77,2.84 0,3.87 -0.85,-0.67 1.21,-2.5 0,-3.87 z"
       id="path110" />
    <path
       d="m 82.75,74.97 c -0.23,2.67 -1.81,4 -3.87,4.84 -1.29,-0.97 -3.36,-1.16 -2.9,-3.87 1.86,-0.09 0.18,0.4 0.48,1.45 0.17,0.63 0.85,0.76 0.97,1.45 3.67,0.62 5.5,-2.14 4.36,-4.84 0.52,0.12 0.32,0.97 0.96,0.97 z"
       id="path112" />
    <path
       d="m 78.39,75.46 c 1.6,0.73 -1.01,1.18 -0.48,2.42 -1.31,-0.44 0.49,-1.7 0.48,-2.42 z"
       id="path114" />
    <path
       d="m 39.19,76.91 c -0.71,-0.3 0.05,-0.59 0,0 1.07,0.71 0.96,2.59 2.42,2.9 0.22,2.04 2.29,2.23 2.9,3.87 0.78,-0.14 0.83,0.46 1.45,0.48 0.87,-0.14 0.99,0.46 0.48,0.48 -1.74,0.12 -1.77,-1.45 -3.39,-1.45 -0.9,-2.47 -3.29,-3.47 -3.86,-6.28 z"
       id="path116" />
    <path
       d="m 95.34,79.33 c 0,-0.81 0,-1.61 0,-2.42 1.07,0.06 0.21,2.05 0.48,2.9 -1.59,-0.12 -2.29,1.37 -3.87,2.42 -4.78,0.11 -7.56,-1.79 -8.71,-5.32 1.25,2.14 3.07,3.71 5.81,4.36 2.49,-0.25 3.98,-1.51 6.29,-1.94 z"
       id="path118" />
    <path
       d="m 95.34,80.78 c 0.58,-0.68 0.19,-0.04 0,0.48 -0.43,-0.3 -0.87,-0.58 -0.97,0 -1.15,-0.27 0.54,-1.45 0.97,-0.48 z"
       id="path120" />
    <path
       d="m 92.43,78.84 c -0.88,2.24 -4.13,1.29 -5.81,0.48 -0.52,-0.45 -0.15,-1.79 -1.45,-1.45 1.46,-1.02 2.29,0.14 4.36,-0.48 -0.1,0.65 -2.01,0.9 0,0.97 -0.01,0.47 -0.59,0.38 -0.97,0.48 0.32,0.65 1.04,0.9 1.94,0.97 -1.11,-1.61 0.69,-0.03 1.93,-0.97 z"
       id="path122" />
    <path
       d="m 82.75,78.84 c 1.6,0.72 -0.82,1.37 -0.97,1.94 -1.31,-0.44 1.11,-1.08 0.97,-1.94 z"
       id="path124" />
    <path
       d="m 75.49,79.81 c 0.87,1.38 -2.37,2.78 -2.42,4.84 -1.26,-1.76 2.2,-2.94 2.42,-4.84 z"
       id="path126" />
    <path
       d="m 30.96,90.95 c 0.61,-0.12 0.49,-0.96 0,-0.97 1.36,-1.33 1.11,3.07 1.45,4.36 -0.58,1.68 -0.76,3.76 -1.94,4.84 1.49,2.87 4,4.71 6.78,6.29 1.24,-0.38 0.11,-3.12 1.94,-2.9 2,1.53 -1.42,2.9 0.97,4.36 1.45,-0.32 -0.46,-1.03 0,-1.94 3.89,3.33 0.15,7.86 -0.97,11.62 -1.29,-2.95 3.2,-6.2 1.94,-9.2 -3.7,-0.79 -9.06,-3.75 -11.13,-7.74 0.61,-1.65 1.04,-3.48 1.94,-4.84 -2.07,-1.96 -2.68,-5.39 -3.87,-8.23 -2.65,4.13 -2.9,10.65 -4.36,15.97 -0.61,-6.59 2.37,-13.77 4.84,-18.88 1.18,2.03 1.53,4.9 2.41,7.26 z"
       id="path128" />
    <path
       d="m 26.12,106.43 c -1.08,-2.38 2.3,-4.47 2.9,-6.78 0.56,-1.38 0.56,0.78 0,0.97 -0.96,1.94 -1.94,3.88 -2.9,5.81 z"
       id="path130" />
    <path
       d="m 37.73,114.66 c -0.53,0.12 -0.33,0.96 -0.97,0.97 -1.68,0.34 -1.74,-1.7 -0.97,-2.42 -1.9,-1.49 -3.43,-3.34 -3.87,-6.29 1.17,1.58 2.62,2.86 3.39,4.84 0.36,1.41 2.62,0.94 2.42,2.9 z m -1.45,0.49 c 0.72,-0.09 0.44,-1.17 0.48,-1.94 -0.71,0.09 -0.44,1.17 -0.48,1.94 z"
       id="path132" />
    <path
       d="m 38.22,108.37 c 1.15,0.27 2.01,1.87 0.97,2.9 -0.48,0 -0.97,0 -1.45,0 -1.07,-1.01 -0.11,-2.15 0.48,-2.9 z m 0.48,1.45 c -0.11,-0.38 -0.01,-0.95 -0.48,-0.97 0.11,0.38 0.01,0.96 0.48,0.97 z"
       id="path134" />
    <path
       d="m 98.72,73.52 c 0.86,-1.21 1.76,2.17 1.94,3.39 0.15,1.05 -0.61,1.89 0,2.42 -0.16,1.13 -0.58,2 -0.97,2.9 -1.48,0.71 -2.52,0.13 -3.87,-0.48 0.12,-0.85 0.83,-1.1 1.94,-0.97 -0.2,-0.93 -1.88,-0.38 -1.45,-1.94 1.65,-0.61 3.64,-3.43 2.41,-5.32 z"
       id="path136" />
  </g>
  <g
     transform="translate(-19.576271,-14.576271)"
     id="g138">
    <path
       d="m 68.74,120.45 v -1.57 c 0,-0.21 0.13,-0.34 0.38,-0.34 h 0.37 v 0.21 h -0.06 c -0.22,0 -0.28,0.06 -0.28,0.27 v 1.38 c 0,0.2 -0.14,0.36 -0.34,0.38 0.19,0.02 0.34,0.18 0.34,0.38 v 1.38 c 0,0.22 0.05,0.28 0.28,0.28 h 0.06 v 0.21 h -0.37 c -0.25,0 -0.38,-0.12 -0.38,-0.34 v -1.57 c 0,-0.2 -0.13,-0.33 -0.3,-0.34 0.17,0 0.3,-0.13 0.3,-0.33 z"
       id="path140" />
    <path
       d="m 71.93,120.18 h 0.27 v 0.8 h -0.28 c -0.08,-0.2 -0.13,-0.28 -0.25,-0.38 -0.18,-0.14 -0.39,-0.22 -0.63,-0.22 -0.32,0 -0.52,0.12 -0.52,0.31 0,0.09 0.08,0.17 0.2,0.22 0.12,0.04 0.25,0.07 0.53,0.11 0.42,0.06 0.46,0.07 0.63,0.13 0.29,0.11 0.44,0.33 0.44,0.63 0,0.45 -0.41,0.76 -1.01,0.76 -0.12,0 -0.26,-0.01 -0.38,-0.05 -0.23,-0.05 -0.33,-0.1 -0.55,-0.27 l -0.09,0.26 h -0.28 v -0.92 h 0.27 c 0.02,0.07 0.05,0.12 0.07,0.17 0.07,0.16 0.2,0.29 0.37,0.38 0.17,0.09 0.37,0.14 0.55,0.14 0.32,0 0.53,-0.13 0.53,-0.33 0,-0.2 -0.15,-0.3 -0.57,-0.36 -0.2,-0.02 -0.31,-0.04 -0.33,-0.04 -0.1,-0.02 -0.21,-0.04 -0.31,-0.08 -0.4,-0.11 -0.58,-0.31 -0.58,-0.63 0,-0.43 0.39,-0.74 0.96,-0.74 0.1,0 0.21,0.01 0.33,0.03 0.22,0.05 0.32,0.1 0.56,0.26 l 0.07,-0.18 z"
       id="path142" />
    <path
       d="m 72.47,120.17 c 0.29,-0.02 0.41,-0.08 0.53,-0.23 0.1,-0.13 0.14,-0.28 0.17,-0.6 h 0.29 v 0.83 h 0.72 v 0.31 h -0.72 v 1.25 c 0,0.21 0.01,0.27 0.03,0.34 0.03,0.1 0.13,0.17 0.24,0.17 0.17,0 0.28,-0.17 0.28,-0.46 v -0.18 h 0.28 v 0.24 c 0,0.47 -0.24,0.72 -0.69,0.72 -0.28,0 -0.5,-0.1 -0.62,-0.29 -0.09,-0.14 -0.11,-0.24 -0.11,-0.58 v -1.21 h -0.41 v -0.31 z"
       id="path144" />
    <path
       d="m 74.86,123.36 c 0.17,0 0.34,-0.12 0.45,-0.33 l 0.08,-0.16 0.17,-0.32 -0.93,-1.84 c -0.11,-0.22 -0.13,-0.23 -0.32,-0.23 h -0.1 v -0.32 h 1.5 v 0.3 h -0.26 c -0.14,0 -0.19,0.01 -0.19,0.07 0,0.04 0.01,0.07 0.06,0.17 l 0.59,1.17 0.58,-1.17 c 0.05,-0.09 0.06,-0.13 0.06,-0.16 0,-0.06 -0.03,-0.08 -0.19,-0.08 H 76.1 v -0.3 h 1.18 v 0.3 h -0.01 l -0.15,0 c -0.08,0 -0.15,0.07 -0.23,0.24 l -1.12,2.16 c -0.13,0.25 -0.24,0.41 -0.35,0.53 -0.13,0.15 -0.33,0.23 -0.56,0.23 -0.37,0 -0.65,-0.25 -0.65,-0.57 0,-0.26 0.18,-0.46 0.41,-0.46 0.19,0 0.33,0.14 0.33,0.33 0,0.19 -0.12,0.31 -0.34,0.33 0.11,0.09 0.16,0.11 0.25,0.11 z"
       id="path146" />
    <path
       d="m 77.22,122.19 h 0.19 c 0.14,0 0.18,0 0.22,-0.04 0.05,-0.03 0.05,-0.07 0.06,-0.2 v -0.2 -2.11 c 0,-0.21 -0.03,-0.24 -0.25,-0.24 h -0.22 v -0.31 h 1.06 v 2.87 c 0,0.13 0,0.16 0.04,0.2 0.03,0.03 0.07,0.04 0.18,0.04 h 0.22 v 0.31 h -1.49 v -0.32 z"
       id="path148" />
    <path
       d="m 79.5,121.38 c 0.01,0.29 0.04,0.42 0.15,0.57 0.14,0.21 0.38,0.33 0.64,0.33 0.37,0 0.61,-0.2 0.72,-0.61 h 0.35 c -0.07,0.31 -0.13,0.44 -0.3,0.59 -0.2,0.2 -0.5,0.31 -0.86,0.31 -0.77,0 -1.29,-0.49 -1.29,-1.22 0,-0.74 0.54,-1.27 1.28,-1.27 0.39,0 0.73,0.15 0.94,0.44 0.18,0.22 0.23,0.42 0.25,0.87 H 79.5 z m 0.02,-0.31 h 1.28 c -0.01,-0.23 -0.04,-0.33 -0.11,-0.44 -0.1,-0.17 -0.28,-0.27 -0.5,-0.27 -0.2,0 -0.36,0.07 -0.48,0.23 -0.13,0.13 -0.17,0.23 -0.19,0.48 z"
       id="path150" />
    <path
       d="m 82.78,120.16 h 1.26 v 0.31 h -0.09 c -0.14,0 -0.2,0.02 -0.2,0.09 0,0.03 0.01,0.08 0.04,0.15 l 0.46,1.17 0.46,-1.17 c 0.01,-0.04 0.02,-0.07 0.02,-0.11 0,-0.1 -0.02,-0.12 -0.14,-0.12 h -0.05 l -0.08,0 v -0.31 h 1.29 v 0.32 h -0.09 c -0.13,0 -0.2,0.04 -0.2,0.11 0,0.02 0.01,0.07 0.03,0.12 l 0.47,1.21 0.48,-1.21 c 0.02,-0.06 0.03,-0.1 0.03,-0.13 0,-0.07 -0.07,-0.11 -0.2,-0.11 h -0.1 v -0.31 h 1.03 v 0.31 h -0.09 c -0.2,0 -0.27,0.05 -0.34,0.24 l -0.71,1.79 h -0.48 l -0.62,-1.52 -0.62,1.52 h -0.46 l -0.71,-1.79 c -0.02,-0.06 -0.04,-0.1 -0.05,-0.12 -0.03,-0.08 -0.1,-0.11 -0.22,-0.11 h -0.04 -0.09 v -0.33 z"
       id="path152" />
    <path
       d="m 87.2,122.19 h 0.26 c 0.18,0 0.22,-0.04 0.22,-0.22 v -0.02 l 0,-0.16 v -1.07 -0.12 c 0,-0.02 -0.02,-0.06 -0.03,-0.08 -0.03,-0.04 -0.06,-0.05 -0.15,-0.05 h -0.26 v -0.31 h 1.03 v 1.78 c 0,0.15 0,0.16 0.03,0.2 0.02,0.03 0.05,0.04 0.13,0.04 h 0.26 v 0.31 H 87.2 v -0.3 z m 0.7,-3.18 c 0.22,0 0.41,0.16 0.41,0.37 0,0.2 -0.18,0.38 -0.39,0.38 -0.21,0 -0.38,-0.17 -0.38,-0.37 0,-0.22 0.16,-0.38 0.36,-0.38 z"
       id="path154" />
    <path
       d="m 88.76,120.17 c 0.29,-0.02 0.41,-0.08 0.53,-0.23 0.1,-0.13 0.14,-0.28 0.17,-0.6 h 0.29 v 0.83 h 0.72 v 0.31 h -0.72 v 1.25 c 0,0.21 0.01,0.27 0.03,0.34 0.03,0.1 0.13,0.17 0.24,0.17 0.17,0 0.28,-0.17 0.28,-0.46 v -0.18 h 0.28 v 0.24 c 0,0.47 -0.24,0.72 -0.69,0.72 -0.28,0 -0.5,-0.1 -0.62,-0.29 -0.09,-0.14 -0.11,-0.24 -0.11,-0.58 v -1.21 h -0.41 v -0.31 z"
       id="path156" />
    <path
       d="m 90.68,122.19 h 0.26 c 0.18,0 0.21,-0.03 0.21,-0.24 l 0,-0.2 v -2.11 c 0,-0.07 0,-0.11 0,-0.12 0,-0.03 -0.01,-0.05 -0.03,-0.07 -0.03,-0.04 -0.06,-0.05 -0.17,-0.05 h -0.26 v -0.31 h 1.05 v 1.41 c 0.07,-0.07 0.12,-0.11 0.16,-0.14 0.19,-0.17 0.45,-0.26 0.7,-0.26 0.27,0 0.53,0.11 0.69,0.28 0.12,0.14 0.18,0.33 0.18,0.6 v 0.98 c 0,0.21 0.01,0.25 0.09,0.25 h 0.3 v 0.31 h -1.38 v -0.31 h 0.26 c 0.07,0 0.1,-0.01 0.12,-0.04 0.01,-0.02 0.02,-0.04 0.02,-0.08 v -0.12 -0.93 c 0,-0.22 -0.02,-0.31 -0.1,-0.41 -0.08,-0.11 -0.22,-0.17 -0.37,-0.17 -0.38,0 -0.67,0.31 -0.67,0.73 v 0.77 c 0,0.22 0.01,0.24 0.12,0.24 h 0.26 v 0.31 h -1.43 v -0.32 z"
       id="path158" />
    <path
       d="m 96.16,120.78 c 0,0.16 -0.14,0.29 -0.32,0.29 -0.19,0 -0.34,-0.14 -0.34,-0.34 0,-0.37 0.48,-0.63 1.17,-0.63 0.67,0 1.01,0.27 1.01,0.8 v 0.94 c 0,0.2 0,0.26 0.02,0.3 0.01,0.05 0.07,0.1 0.12,0.1 0.05,0 0.08,-0.03 0.1,-0.1 0.01,-0.03 0.02,-0.07 0.02,-0.11 0.01,-0.08 0.01,-0.1 0.02,-0.4 h 0.28 v 0.13 c 0,0.61 -0.15,0.82 -0.56,0.82 -0.17,0 -0.31,-0.05 -0.41,-0.14 -0.06,-0.06 -0.09,-0.12 -0.14,-0.26 -0.11,0.14 -0.16,0.19 -0.32,0.26 -0.2,0.09 -0.43,0.15 -0.64,0.15 -0.46,0 -0.76,-0.26 -0.76,-0.65 0,-0.35 0.2,-0.52 0.69,-0.62 l 0.4,-0.08 c 0.48,-0.1 0.6,-0.18 0.6,-0.44 0,-0.28 -0.24,-0.44 -0.64,-0.44 -0.05,0 -0.11,0 -0.17,0.01 -0.17,0.02 -0.21,0.04 -0.36,0.12 0.17,0.09 0.23,0.16 0.23,0.29 z m 0.94,0.53 c -0.18,0.07 -0.22,0.08 -0.46,0.15 -0.48,0.12 -0.61,0.21 -0.61,0.43 0,0.23 0.16,0.37 0.42,0.37 0.17,0 0.37,-0.08 0.49,-0.21 0.11,-0.12 0.16,-0.26 0.16,-0.5 v -0.24 z"
       id="path160" />
    <path
       d="m 98.25,120.17 c 0.29,-0.02 0.41,-0.08 0.53,-0.23 0.1,-0.13 0.14,-0.28 0.17,-0.6 h 0.29 v 0.83 h 0.72 v 0.31 h -0.72 v 1.25 c 0,0.21 0.01,0.27 0.03,0.34 0.03,0.1 0.13,0.17 0.24,0.17 0.17,0 0.28,-0.17 0.28,-0.46 v -0.18 h 0.28 v 0.24 c 0,0.47 -0.24,0.72 -0.69,0.72 -0.28,0 -0.5,-0.1 -0.62,-0.29 -0.09,-0.14 -0.11,-0.24 -0.11,-0.58 v -1.21 h -0.41 v -0.31 z"
       id="path162" />
    <path
       d="m 100.13,120.17 c 0.29,-0.02 0.41,-0.08 0.53,-0.23 0.1,-0.13 0.14,-0.28 0.17,-0.6 h 0.29 v 0.83 h 0.72 v 0.31 h -0.72 v 1.25 c 0,0.21 0.01,0.27 0.03,0.34 0.03,0.1 0.13,0.17 0.24,0.17 0.17,0 0.28,-0.17 0.28,-0.46 v -0.18 h 0.28 v 0.24 c 0,0.47 -0.24,0.72 -0.69,0.72 -0.28,0 -0.5,-0.1 -0.62,-0.29 -0.09,-0.14 -0.11,-0.24 -0.11,-0.58 v -1.21 h -0.41 v -0.31 z"
       id="path164" />
    <path
       d="m 102.08,122.19 h 0.26 c 0.18,0 0.22,-0.04 0.22,-0.22 v -0.02 l 0,-0.16 v -1.07 -0.12 c 0,-0.02 -0.02,-0.06 -0.03,-0.08 -0.03,-0.04 -0.06,-0.05 -0.15,-0.05 h -0.26 v -0.31 h 1.03 v 1.78 c 0,0.15 0,0.16 0.03,0.2 0.02,0.03 0.05,0.04 0.13,0.04 h 0.26 v 0.31 h -1.47 v -0.3 z m 0.7,-3.18 c 0.22,0 0.41,0.16 0.41,0.37 0,0.2 -0.18,0.38 -0.39,0.38 -0.21,0 -0.38,-0.17 -0.38,-0.37 0,-0.22 0.16,-0.38 0.36,-0.38 z"
       id="path166" />
    <path
       d="m 103.64,120.17 c 0.29,-0.02 0.41,-0.08 0.53,-0.23 0.1,-0.13 0.14,-0.28 0.17,-0.6 h 0.29 v 0.83 h 0.72 v 0.31 h -0.72 v 1.25 c 0,0.21 0.01,0.27 0.03,0.34 0.03,0.1 0.13,0.17 0.24,0.17 0.17,0 0.28,-0.17 0.28,-0.46 v -0.18 h 0.28 v 0.24 c 0,0.47 -0.24,0.72 -0.69,0.72 -0.28,0 -0.5,-0.1 -0.62,-0.29 -0.09,-0.14 -0.11,-0.24 -0.11,-0.58 v -1.21 h -0.41 v -0.31 z"
       id="path168" />
    <path
       d="m 105.56,120.16 h 1 v 1.47 c 0,0.25 0.02,0.35 0.11,0.45 0.08,0.09 0.21,0.14 0.35,0.14 0.09,0 0.2,-0.02 0.29,-0.07 0.08,-0.04 0.15,-0.09 0.21,-0.17 0.13,-0.15 0.17,-0.28 0.17,-0.54 v -0.72 c 0,-0.14 0,-0.16 -0.03,-0.2 -0.03,-0.03 -0.07,-0.04 -0.18,-0.04 h -0.26 v -0.32 h 1.05 v 1.79 c 0,0.22 0.02,0.24 0.18,0.24 h 0.22 v 0.31 h -0.98 v -0.35 c -0.1,0.12 -0.15,0.17 -0.25,0.24 -0.18,0.12 -0.38,0.18 -0.61,0.18 -0.15,0 -0.29,-0.02 -0.41,-0.08 -0.31,-0.12 -0.45,-0.38 -0.45,-0.84 v -0.93 -0.12 c 0,-0.03 0,-0.05 -0.01,-0.08 -0.01,-0.03 -0.04,-0.04 -0.09,-0.04 h -0.3 v -0.32 z"
       id="path170" />
    <path
       d="m 110.79,119.63 c 0,-0.14 -0.01,-0.16 -0.06,-0.2 -0.04,-0.04 -0.09,-0.05 -0.23,-0.05 h -0.26 v -0.31 h 1.13 v 2.87 c 0,0.14 0,0.16 0.04,0.2 0.03,0.03 0.06,0.04 0.17,0.04 h 0.23 v 0.31 h -1.02 v -0.32 c -0.04,0.04 -0.09,0.08 -0.11,0.11 -0.2,0.17 -0.44,0.26 -0.69,0.26 -0.66,0 -1.12,-0.49 -1.12,-1.2 0,-0.73 0.47,-1.25 1.12,-1.25 0.13,0 0.25,0.02 0.38,0.07 0.16,0.06 0.25,0.11 0.43,0.26 v -0.79 z m -1.32,1.68 v 0.04 c 0,0.53 0.27,0.88 0.67,0.88 0.43,0 0.68,-0.34 0.68,-0.92 0,-0.56 -0.26,-0.91 -0.68,-0.91 -0.4,0.01 -0.65,0.35 -0.67,0.91 z"
       id="path172" />
    <path
       d="m 112.59,121.38 c 0.01,0.29 0.04,0.42 0.15,0.57 0.14,0.21 0.38,0.33 0.64,0.33 0.37,0 0.61,-0.2 0.72,-0.61 h 0.35 c -0.07,0.31 -0.13,0.44 -0.3,0.59 -0.2,0.2 -0.5,0.31 -0.86,0.31 -0.77,0 -1.29,-0.49 -1.29,-1.22 0,-0.74 0.54,-1.27 1.28,-1.27 0.39,0 0.73,0.15 0.94,0.44 0.18,0.22 0.23,0.42 0.25,0.87 h -1.88 z m 0.02,-0.31 h 1.28 c -0.01,-0.23 -0.04,-0.33 -0.11,-0.44 -0.1,-0.17 -0.28,-0.27 -0.5,-0.27 -0.2,0 -0.36,0.07 -0.48,0.23 -0.12,0.13 -0.16,0.23 -0.19,0.48 z"
       id="path174" />
    <path
       d="m 114.8,122.82 h 0.06 c 0.22,0 0.28,-0.06 0.28,-0.28 v -1.38 c 0,-0.2 0.14,-0.36 0.34,-0.38 -0.2,-0.02 -0.34,-0.18 -0.34,-0.38 v -1.38 c 0,-0.22 -0.05,-0.27 -0.28,-0.27 h -0.06 v -0.21 h 0.37 c 0.25,0 0.38,0.12 0.38,0.34 v 1.57 c 0,0.2 0.13,0.33 0.3,0.34 -0.17,0.01 -0.3,0.14 -0.3,0.34 v 1.57 c 0,0.21 -0.13,0.34 -0.38,0.34 h -0.37 v -0.22 z"
       id="path176" />
  </g>
  <rect
     width="72"
     height="29"
     x="25.423729"
     y="72.423729"
     id="rect178"
     style="fill:#ce4dd6" />
  <g
     transform="translate(-19.576271,-14.576271)"
     id="g180"
     style="fill:#ffffff">
    <path
       d="m 62.46,94.37 h 1.45 v 5.07 H 62.4 c -0.14,-0.5 -0.29,-0.93 -0.43,-1.24 -0.35,-0.77 -1.01,-1.53 -1.8,-1.97 -0.73,-0.41 -1.57,-0.62 -2.69,-0.62 -1.8,0 -3.02,0.81 -3.02,1.96 0,0.39 0.14,0.79 0.37,1.04 0.21,0.23 0.54,0.43 0.93,0.58 0.68,0.25 1.61,0.46 2.94,0.73 0.95,0.19 1.57,0.33 1.88,0.39 0.54,0.12 1.06,0.31 1.63,0.56 1.45,0.66 2.26,1.92 2.26,3.46 0,1.06 -0.39,1.99 -1.12,2.75 -0.97,0.99 -2.32,1.43 -4.33,1.43 -0.91,0 -1.72,-0.14 -2.79,-0.46 -1.16,-0.35 -1.57,-0.58 -2.57,-1.34 l -0.45,1.55 h -1.45 v -5.36 h 1.59 c 0.1,0.43 0.19,0.77 0.27,1.03 0.35,0.89 1.06,1.76 1.95,2.3 0.87,0.52 2.11,0.85 3.19,0.85 1.82,0 3.06,-0.87 3.06,-2.17 0,-0.43 -0.17,-0.89 -0.43,-1.16 -0.29,-0.29 -0.68,-0.54 -1.18,-0.7 -0.77,-0.31 -1.22,-0.39 -3.29,-0.75 -1.82,-0.35 -2.61,-0.62 -3.56,-1.26 -1.08,-0.75 -1.61,-1.72 -1.61,-2.96 0,-2.4 2.15,-4.04 5.32,-4.04 0.6,0 1.22,0.06 1.84,0.17 0.54,0.12 1.03,0.27 1.43,0.46 0.56,0.25 0.87,0.46 1.63,1.04 l 0.49,-1.34 z"
       id="path182" />
    <path
       d="m 68.48,101.28 c 0,0.68 -0.58,1.2 -1.35,1.2 -0.81,0 -1.43,-0.6 -1.43,-1.39 0,-1.55 1.99,-2.59 4.9,-2.59 2.86,0 4.28,1.04 4.28,3.17 v 3.89 c 0,0.73 0,0.95 0.06,1.14 0.08,0.23 0.29,0.37 0.5,0.37 0.19,0 0.31,-0.1 0.41,-0.37 0.12,-0.41 0.15,-0.75 0.15,-1.95 h 1.18 v 0.54 c 0,2.46 -0.64,3.31 -2.46,3.31 -0.74,0 -1.28,-0.17 -1.7,-0.52 -0.27,-0.23 -0.45,-0.48 -0.68,-1.08 -0.48,0.62 -0.74,0.81 -1.39,1.1 -0.79,0.35 -1.72,0.54 -2.52,0.54 -1.86,0 -3.1,-1.04 -3.1,-2.61 0,-1.45 0.81,-2.23 2.71,-2.59 l 1.64,-0.31 c 1.97,-0.41 2.5,-0.76 2.5,-1.78 0,-1.08 -0.91,-1.72 -2.5,-1.72 -0.19,0 -0.41,0 -0.62,0.04 -0.66,0.1 -0.85,0.14 -1.39,0.44 0.59,0.37 0.81,0.66 0.81,1.17 z m 3.63,2.22 c -0.68,0.33 -0.79,0.37 -1.7,0.6 -1.78,0.46 -2.3,0.83 -2.3,1.64 0,0.87 0.6,1.43 1.59,1.43 0.68,0 1.43,-0.37 1.9,-0.89 0.39,-0.46 0.52,-0.99 0.52,-1.86 v -0.92 z"
       id="path184" />
    <path
       d="m 85.89,98.82 h 1.2 v 3.25 h -1.26 c -0.33,-0.79 -0.54,-1.08 -0.99,-1.45 -0.64,-0.54 -1.51,-0.83 -2.46,-0.83 -1.24,0 -2.03,0.45 -2.03,1.16 0,0.39 0.31,0.72 0.89,0.91 0.5,0.17 0.95,0.25 2.13,0.45 1.45,0.23 1.9,0.33 2.57,0.62 1.08,0.46 1.68,1.35 1.68,2.48 0,1.88 -1.76,3.17 -4.24,3.17 -0.46,0 -0.95,-0.06 -1.45,-0.15 -0.99,-0.19 -1.41,-0.39 -2.38,-1.08 l -0.39,0.99 h -1.22 v -3.68 h 1.22 c 0.12,0.27 0.21,0.48 0.31,0.64 0.29,0.56 0.79,1.04 1.43,1.39 0.66,0.35 1.45,0.56 2.17,0.56 1.18,0 2.03,-0.52 2.03,-1.26 0,-0.79 -0.56,-1.1 -2.42,-1.41 -0.77,-0.12 -1.24,-0.19 -1.37,-0.21 -0.43,-0.1 -0.85,-0.19 -1.26,-0.35 -1.51,-0.48 -2.23,-1.3 -2.23,-2.53 0,-1.78 1.7,-3.06 4.1,-3.06 0.43,0 0.89,0.04 1.32,0.14 0.91,0.17 1.32,0.37 2.28,1.01 l 0.37,-0.76 z"
       id="path186" />
    <path
       d="m 96.78,98.82 h 1.2 v 3.25 h -1.26 c -0.33,-0.79 -0.54,-1.08 -0.99,-1.45 -0.64,-0.54 -1.51,-0.83 -2.46,-0.83 -1.24,0 -2.03,0.45 -2.03,1.16 0,0.39 0.31,0.72 0.89,0.91 0.5,0.17 0.95,0.25 2.13,0.45 1.45,0.23 1.9,0.33 2.57,0.62 1.08,0.46 1.68,1.35 1.68,2.48 0,1.88 -1.76,3.17 -4.24,3.17 -0.46,0 -0.95,-0.06 -1.45,-0.15 -0.99,-0.19 -1.41,-0.39 -2.38,-1.08 l -0.39,0.99 h -1.22 v -3.68 h 1.22 c 0.12,0.27 0.21,0.48 0.31,0.64 0.29,0.56 0.79,1.04 1.43,1.39 0.66,0.35 1.45,0.56 2.17,0.56 1.18,0 2.03,-0.52 2.03,-1.26 0,-0.79 -0.56,-1.1 -2.42,-1.41 -0.77,-0.12 -1.24,-0.19 -1.37,-0.21 -0.43,-0.1 -0.85,-0.19 -1.26,-0.35 -1.51,-0.48 -2.23,-1.3 -2.23,-2.53 0,-1.78 1.7,-3.06 4.1,-3.06 0.43,0 0.89,0.04 1.32,0.14 0.91,0.17 1.32,0.37 2.28,1.01 l 0.37,-0.76 z"
       id="path188" />
    <path
       d="m 101.33,105.51 c 0.89,0 1.62,0.72 1.62,1.57 0,0.81 -0.73,1.49 -1.62,1.49 -0.91,0 -1.61,-0.66 -1.63,-1.47 0.01,-0.87 0.72,-1.59 1.63,-1.59 z"
       id="path190" />
  </g>
</svg>
